<svg width="24" height="23" viewBox="0 0 24 23" fill="none" xmlns="http://www.w3.org/2000/svg">
<rect width="24" height="22.38" rx="3" fill="url(#paint0_linear_110_2)"/>
<path d="M20.2314 11.3485C20.2314 13.5316 19.3641 15.6253 17.8205 17.169C16.2768 18.7127 14.1831 19.5799 12 19.5799C9.81693 19.5799 7.72326 18.7127 6.17958 17.169C4.63591 15.6253 3.76868 13.5316 3.76868 11.3485L5.00662 11.3485C5.00662 13.2033 5.74342 14.9821 7.05494 16.2936C8.36646 17.6051 10.1453 18.3419 12 18.3419C13.8548 18.3419 15.6336 17.6051 16.9451 16.2936C18.2566 14.9821 18.9934 13.2033 18.9934 11.3485L20.2314 11.3485Z" fill="#433131"/>
<path d="M3.862 11.3486L10.9174 11.3486L10.8698 12.5432L3.862 12.5332V11.3486Z" fill="#433131"/>
<path d="M17.5436 11.3486H20.1194L20.102 12.5432L17.5436 12.5332V11.3486Z" fill="#433131"/>
<path d="M9.57647 16.2548L15.1077 10.8539L15.1728 11.4644L15.7578 11.4016L11.9385 15.0972L16.2085 12.7424L16.1871 13.2078L16.6807 13.3974L10.2218 16.9794M14.313 11.6251L14.3241 12.2112L15.017 12.0647M15.4849 13.1788L15.2495 13.6677L15.9684 13.7657" stroke="#523C3C" stroke-width="0.4"/>
<path d="M18.0632 2.8186C18.1563 2.82404 18.2443 2.86308 18.3102 2.92896C18.3761 2.99482 18.4152 3.08306 18.4206 3.17603C18.5609 5.56438 17.8593 7.49621 16.5378 8.38696C16.4952 8.41569 16.4518 8.44343 16.4079 8.46997C15.9509 8.74748 15.4261 8.89351 14.8913 8.89185C14.3381 8.88496 13.7938 8.7484 13.3034 8.49243H13.3024L13.1677 8.67505C12.8734 9.11263 12.715 9.62979 12.7165 10.1604V11.5647C12.7165 11.6654 12.6764 11.762 12.6052 11.8333C12.5339 11.9044 12.4374 11.9445 12.3366 11.9446C12.2357 11.9446 12.1384 11.9045 12.0671 11.8333C11.9959 11.762 11.9557 11.6654 11.9557 11.5647V10.1985L10.7634 9.00708L10.7643 9.0061L10.7624 9.00708C10.413 9.17998 10.0292 9.27275 9.63934 9.27759C9.23772 9.27756 8.84337 9.16651 8.50067 8.95728C7.46237 8.32859 6.90511 6.87715 7.01141 5.07544C7.01694 4.98258 7.0569 4.89513 7.12274 4.82935C7.18858 4.76363 7.27594 4.72353 7.36884 4.71802C9.17234 4.61228 10.6254 5.16887 11.2546 6.2063C11.6605 6.8793 11.6747 7.68968 11.3024 8.46704H11.3005L11.3024 8.46899L12.0778 9.24731L12.0798 9.24634C12.2095 8.7742 12.4403 8.33603 12.7556 7.96118L12.7565 7.96216L12.7556 7.96021C12.2017 6.88496 12.2002 5.7574 12.7624 4.82935C13.0817 4.30279 13.5605 3.86826 14.1638 3.53833C14.2642 3.48337 14.368 3.43117 14.4753 3.38208C15.441 2.94006 16.6751 2.73822 18.0632 2.8186ZM10.7184 7.88306C10.8694 7.4257 10.8324 6.98166 10.6013 6.60083C10.1579 5.86982 9.10879 5.45463 7.75848 5.46606V5.40845L7.75751 5.46704C7.7475 6.81598 8.16165 7.86394 8.89325 8.30688C9.27528 8.53799 9.72016 8.57639 10.1784 8.42505V8.42212L9.01532 7.26001C8.94706 7.18815 8.90956 7.09247 8.91083 6.99341C8.91213 6.89436 8.95206 6.7998 9.02216 6.72974C9.09233 6.65963 9.18758 6.61968 9.2868 6.61841C9.38587 6.61726 9.48157 6.65472 9.55341 6.7229L10.7175 7.88599V7.88501L10.7184 7.88306ZM17.6755 3.56177C15.7832 3.51758 14.279 4.05166 13.5505 5.02173C13.5019 5.08636 13.4572 5.15346 13.4157 5.22192L13.3464 5.34204C13.0239 5.95322 13.0177 6.65843 13.32 7.37329H13.321L15.8815 4.8186C15.9535 4.75032 16.0499 4.71284 16.1491 4.71411C16.2482 4.71542 16.3427 4.75552 16.4128 4.82544C16.4829 4.89545 16.5227 4.99012 16.5241 5.08911C16.5254 5.1882 16.4879 5.28385 16.4196 5.35571L13.86 7.91431L13.862 7.91626H13.86C14.5753 8.21683 15.2803 8.20924 15.8923 7.88892C15.9332 7.86749 15.9743 7.84479 16.0143 7.82056C17.1122 7.15613 17.7222 5.57868 17.6765 3.56274H17.696L17.6755 3.56177Z" fill="#433131" stroke="white" stroke-width="0.00185804"/>
<defs>
<linearGradient id="paint0_linear_110_2" x1="2.01" y1="-4.6413e-07" x2="20.3461" y2="23.0435" gradientUnits="userSpaceOnUse">
<stop stop-color="#A8E063"/>
<stop offset="1" stop-color="#56AB2F"/>
</linearGradient>
</defs>
</svg>
